<?xml version="1.0" encoding="UTF-8" standalone="no"?><svg xmlns="http://www.w3.org/2000/svg" xmlns:xlink="http://www.w3.org/1999/xlink" contentScriptType="application/ecmascript" contentStyleType="text/css" height="782px" preserveAspectRatio="none" style="width:403px;height:782px;background:#FFFFFF;" version="1.1" viewBox="0 0 403 782" width="403px" zoomAndPan="magnify"><defs><filter height="300%" id="f1itfp1bnhbpg7" width="300%" x="-1" y="-1"><feGaussianBlur result="blurOut" stdDeviation="2.0"/><feColorMatrix in="blurOut" result="blurOut2" type="matrix" values="0 0 0 0 0 0 0 0 0 0 0 0 0 0 0 0 0 0 .4 0"/><feOffset dx="4.0" dy="4.0" in="blurOut2" result="blurOut3"/><feBlend in="SourceGraphic" in2="blurOut3" mode="normal"/></filter></defs><g><ellipse cx="186.5" cy="20" fill="#000000" filter="url(#f1itfp1bnhbpg7)" rx="10" ry="10" style="stroke:none;stroke-width:1.0;"/><rect fill="#FEFECE" filter="url(#f1itfp1bnhbpg7)" height="36.3441" rx="12.5" ry="12.5" style="stroke:#A80036;stroke-width:1.5;" width="150" x="111.5" y="50"/><text fill="#000000" font-family="sans-serif" font-size="12" lengthAdjust="spacing" textLength="130" x="121.5" y="72.8281">Initiate problem upload</text><rect fill="#FEFECE" filter="url(#f1itfp1bnhbpg7)" height="36.3441" rx="12.5" ry="12.5" style="stroke:#A80036;stroke-width:1.5;" width="120" x="126.5" y="106.3441"/><text fill="#000000" font-family="sans-serif" font-size="12" lengthAdjust="spacing" textLength="100" x="136.5" y="129.1722">Upload statement</text><rect fill="#FEFECE" filter="url(#f1itfp1bnhbpg7)" height="36.3441" rx="12.5" ry="12.5" style="stroke:#A80036;stroke-width:1.5;" width="197" x="88" y="206.6882"/><text fill="#000000" font-family="sans-serif" font-size="12" lengthAdjust="spacing" textLength="177" x="98" y="229.5163">Choose programming language</text><rect fill="#FEFECE" filter="url(#f1itfp1bnhbpg7)" height="36.3441" rx="12.5" ry="12.5" style="stroke:#A80036;stroke-width:1.5;" width="158" x="107.5" y="263.0323"/><text fill="#000000" font-family="sans-serif" font-size="12" lengthAdjust="spacing" textLength="138" x="117.5" y="285.8604">Choose protocol scheme</text><rect fill="#FEFECE" filter="url(#f1itfp1bnhbpg7)" height="36.3441" rx="12.5" ry="12.5" style="stroke:#A80036;stroke-width:1.5;" width="186" x="93.5" y="368.8674"/><text fill="#000000" font-family="sans-serif" font-size="12" lengthAdjust="spacing" textLength="166" x="103.5" y="391.6955">Specify command line options</text><polygon fill="#FEFECE" filter="url(#f1itfp1bnhbpg7)" points="85,319.3765,288,319.3765,300,331.3765,288,343.3765,85,343.3765,73,331.3765,85,319.3765" style="stroke:#A80036;stroke-width:1.5;"/><text fill="#000000" font-family="sans-serif" font-size="11" lengthAdjust="spacing" textLength="17" x="190.5" y="355.1354">yes</text><text fill="#000000" font-family="sans-serif" font-size="11" lengthAdjust="spacing" textLength="203" x="85" y="335.6444">Wish to specify command line options?</text><text fill="#000000" font-family="sans-serif" font-size="11" lengthAdjust="spacing" textLength="14" x="300" y="328.1535">no</text><polygon fill="#FEFECE" filter="url(#f1itfp1bnhbpg7)" points="186.5,425.2115,198.5,437.2115,186.5,449.2115,174.5,437.2115,186.5,425.2115" style="stroke:#A80036;stroke-width:1.5;"/><rect fill="#FEFECE" filter="url(#f1itfp1bnhbpg7)" height="36.3441" rx="12.5" ry="12.5" style="stroke:#A80036;stroke-width:1.5;" width="186" x="93.5" y="518.7025"/><text fill="#000000" font-family="sans-serif" font-size="12" lengthAdjust="spacing" textLength="166" x="103.5" y="541.5305">Specify command line options</text><polygon fill="#FEFECE" filter="url(#f1itfp1bnhbpg7)" points="32,469.2115,341,469.2115,353,481.2115,341,493.2115,32,493.2115,20,481.2115,32,469.2115" style="stroke:#A80036;stroke-width:1.5;"/><text fill="#000000" font-family="sans-serif" font-size="11" lengthAdjust="spacing" textLength="17" x="190.5" y="504.9704">yes</text><text fill="#000000" font-family="sans-serif" font-size="11" lengthAdjust="spacing" textLength="309" x="32" y="485.4795">Wish to pecify source conversion to an executable options?</text><text fill="#000000" font-family="sans-serif" font-size="11" lengthAdjust="spacing" textLength="14" x="353" y="477.9885">no</text><polygon fill="#FEFECE" filter="url(#f1itfp1bnhbpg7)" points="186.5,575.0466,198.5,587.0466,186.5,599.0466,174.5,587.0466,186.5,575.0466" style="stroke:#A80036;stroke-width:1.5;"/><rect fill="#FEFECE" filter="url(#f1itfp1bnhbpg7)" height="36.3441" rx="12.5" ry="12.5" style="stroke:#A80036;stroke-width:1.5;" width="183" x="95" y="619.0466"/><text fill="#000000" font-family="sans-serif" font-size="12" lengthAdjust="spacing" textLength="163" x="105" y="641.8747">Upload protocol-specific data</text><polygon fill="#FEFECE" filter="url(#f1itfp1bnhbpg7)" points="186.5,162.6882,198.5,174.6882,186.5,186.6882,174.5,174.6882,186.5,162.6882" style="stroke:#A80036;stroke-width:1.5;"/><polygon fill="#FEFECE" filter="url(#f1itfp1bnhbpg7)" points="127,675.3907,246,675.3907,258,687.3907,246,699.3907,127,699.3907,115,687.3907,127,675.3907" style="stroke:#A80036;stroke-width:1.5;"/><text fill="#000000" font-family="sans-serif" font-size="11" lengthAdjust="spacing" textLength="119" x="127" y="691.6587">Add another protocol?</text><text fill="#000000" font-family="sans-serif" font-size="11" lengthAdjust="spacing" textLength="17" x="258" y="684.1677">yes</text><ellipse cx="186.5" cy="754.5956" fill="#FFFFFF" filter="url(#f1itfp1bnhbpg7)" rx="11" ry="11" style="stroke:#000000;stroke-width:1.0;"/><ellipse cx="186.5" cy="754.5956" fill="#000000" rx="6" ry="6" style="stroke:#7F7F7F;stroke-width:1.0;"/><line style="stroke:#A80036;stroke-width:1.5;" x1="186.5" x2="186.5" y1="30" y2="50"/><polygon fill="#A80036" points="182.5,40,186.5,50,190.5,40,186.5,44" style="stroke:#A80036;stroke-width:1.0;"/><line style="stroke:#A80036;stroke-width:1.5;" x1="186.5" x2="186.5" y1="86.3441" y2="106.3441"/><polygon fill="#A80036" points="182.5,96.3441,186.5,106.3441,190.5,96.3441,186.5,100.3441" style="stroke:#A80036;stroke-width:1.0;"/><line style="stroke:#A80036;stroke-width:1.5;" x1="186.5" x2="186.5" y1="243.0323" y2="263.0323"/><polygon fill="#A80036" points="182.5,253.0323,186.5,263.0323,190.5,253.0323,186.5,257.0323" style="stroke:#A80036;stroke-width:1.0;"/><line style="stroke:#A80036;stroke-width:1.5;" x1="186.5" x2="186.5" y1="343.3765" y2="368.8674"/><polygon fill="#A80036" points="182.5,358.8674,186.5,368.8674,190.5,358.8674,186.5,362.8674" style="stroke:#A80036;stroke-width:1.0;"/><line style="stroke:#A80036;stroke-width:1.5;" x1="300" x2="312" y1="331.3765" y2="331.3765"/><polygon fill="#A80036" points="308,377.0395,312,387.0395,316,377.0395,312,381.0395" style="stroke:#A80036;stroke-width:1.5;"/><line style="stroke:#A80036;stroke-width:1.5;" x1="312" x2="312" y1="331.3765" y2="437.2115"/><line style="stroke:#A80036;stroke-width:1.5;" x1="312" x2="198.5" y1="437.2115" y2="437.2115"/><polygon fill="#A80036" points="208.5,433.2115,198.5,437.2115,208.5,441.2115,204.5,437.2115" style="stroke:#A80036;stroke-width:1.0;"/><line style="stroke:#A80036;stroke-width:1.5;" x1="186.5" x2="186.5" y1="405.2115" y2="425.2115"/><polygon fill="#A80036" points="182.5,415.2115,186.5,425.2115,190.5,415.2115,186.5,419.2115" style="stroke:#A80036;stroke-width:1.0;"/><line style="stroke:#A80036;stroke-width:1.5;" x1="186.5" x2="186.5" y1="299.3765" y2="319.3765"/><polygon fill="#A80036" points="182.5,309.3765,186.5,319.3765,190.5,309.3765,186.5,313.3765" style="stroke:#A80036;stroke-width:1.0;"/><line style="stroke:#A80036;stroke-width:1.5;" x1="186.5" x2="186.5" y1="493.2115" y2="518.7025"/><polygon fill="#A80036" points="182.5,508.7025,186.5,518.7025,190.5,508.7025,186.5,512.7025" style="stroke:#A80036;stroke-width:1.0;"/><line style="stroke:#A80036;stroke-width:1.5;" x1="353" x2="365" y1="481.2115" y2="481.2115"/><polygon fill="#A80036" points="361,526.8745,365,536.8745,369,526.8745,365,530.8745" style="stroke:#A80036;stroke-width:1.5;"/><line style="stroke:#A80036;stroke-width:1.5;" x1="365" x2="365" y1="481.2115" y2="587.0466"/><line style="stroke:#A80036;stroke-width:1.5;" x1="365" x2="198.5" y1="587.0466" y2="587.0466"/><polygon fill="#A80036" points="208.5,583.0466,198.5,587.0466,208.5,591.0466,204.5,587.0466" style="stroke:#A80036;stroke-width:1.0;"/><line style="stroke:#A80036;stroke-width:1.5;" x1="186.5" x2="186.5" y1="555.0466" y2="575.0466"/><polygon fill="#A80036" points="182.5,565.0466,186.5,575.0466,190.5,565.0466,186.5,569.0466" style="stroke:#A80036;stroke-width:1.0;"/><line style="stroke:#A80036;stroke-width:1.5;" x1="186.5" x2="186.5" y1="449.2115" y2="469.2115"/><polygon fill="#A80036" points="182.5,459.2115,186.5,469.2115,190.5,459.2115,186.5,463.2115" style="stroke:#A80036;stroke-width:1.0;"/><line style="stroke:#A80036;stroke-width:1.5;" x1="186.5" x2="186.5" y1="599.0466" y2="619.0466"/><polygon fill="#A80036" points="182.5,609.0466,186.5,619.0466,190.5,609.0466,186.5,613.0466" style="stroke:#A80036;stroke-width:1.0;"/><line style="stroke:#A80036;stroke-width:1.5;" x1="186.5" x2="186.5" y1="186.6882" y2="206.6882"/><polygon fill="#A80036" points="182.5,196.6882,186.5,206.6882,190.5,196.6882,186.5,200.6882" style="stroke:#A80036;stroke-width:1.0;"/><line style="stroke:#A80036;stroke-width:1.5;" x1="258" x2="377" y1="687.3907" y2="687.3907"/><polygon fill="#A80036" points="373,441.0395,377,431.0395,381,441.0395,377,437.0395" style="stroke:#A80036;stroke-width:1.5;"/><line style="stroke:#A80036;stroke-width:1.5;" x1="377" x2="377" y1="174.6882" y2="687.3907"/><line style="stroke:#A80036;stroke-width:1.5;" x1="377" x2="198.5" y1="174.6882" y2="174.6882"/><polygon fill="#A80036" points="208.5,170.6882,198.5,174.6882,208.5,178.6882,204.5,174.6882" style="stroke:#A80036;stroke-width:1.0;"/><line style="stroke:#A80036;stroke-width:1.5;" x1="186.5" x2="186.5" y1="655.3907" y2="675.3907"/><polygon fill="#A80036" points="182.5,665.3907,186.5,675.3907,190.5,665.3907,186.5,669.3907" style="stroke:#A80036;stroke-width:1.0;"/><line style="stroke:#A80036;stroke-width:1.5;" x1="186.5" x2="186.5" y1="142.6882" y2="162.6882"/><polygon fill="#A80036" points="182.5,152.6882,186.5,162.6882,190.5,152.6882,186.5,156.6882" style="stroke:#A80036;stroke-width:1.0;"/><line style="stroke:#A80036;stroke-width:1.5;" x1="186.5" x2="186.5" y1="699.3907" y2="743.5956"/><polygon fill="#A80036" points="182.5,733.5956,186.5,743.5956,190.5,733.5956,186.5,737.5956" style="stroke:#A80036;stroke-width:1.0;"/><text fill="#000000" font-family="sans-serif" font-size="11" lengthAdjust="spacing" textLength="14" x="190.5" y="722.8726">no</text><!--MD5=[9d49a1fa9e958c15a6a4d2cabde2e777]
@startuml
'https://plantuml.com/activity-diagram-beta

start
:Initiate problem upload;
:Upload statement;
repeat
:Choose programming language;
:Choose protocol scheme;
if (Wish to specify command line options?) then (yes)
    :Specify command line options;
else (no)
endif
if (Wish to pecify source conversion to an executable options?) then (yes)
    :Specify command line options;
else (no)
endif
:Upload protocol-specific data;
repeat while (Add another protocol?) is (yes)
->no;
stop

@enduml

@startuml

start
:Initiate problem upload;
:Upload statement;
repeat
:Choose programming language;
:Choose protocol scheme;
if (Wish to specify command line options?) then (yes)
    :Specify command line options;
else (no)
endif
if (Wish to pecify source conversion to an executable options?) then (yes)
    :Specify command line options;
else (no)
endif
:Upload protocol-specific data;
repeat while (Add another protocol?) is (yes)
->no;
stop

@enduml

PlantUML version 1.2021.16(Wed Dec 08 20:25:22 MSK 2021)
(GPL source distribution)
Java Runtime: OpenJDK Runtime Environment
JVM: OpenJDK 64-Bit Server VM
Default Encoding: UTF-8
Language: en
Country: US
--></g></svg>