<?xml version="1.0" encoding="UTF-8" standalone="no"?><svg xmlns="http://www.w3.org/2000/svg" xmlns:xlink="http://www.w3.org/1999/xlink" contentScriptType="application/ecmascript" contentStyleType="text/css" height="1043px" preserveAspectRatio="none" style="width:2474px;height:1043px;background:#FFFFFF;" version="1.1" viewBox="0 0 2474 1043" width="2474px" zoomAndPan="magnify"><defs><filter height="300%" id="f1mqqskwyy4i4o" width="300%" x="-1" y="-1"><feGaussianBlur result="blurOut" stdDeviation="2.0"/><feColorMatrix in="blurOut" result="blurOut2" type="matrix" values="0 0 0 0 0 0 0 0 0 0 0 0 0 0 0 0 0 0 .4 0"/><feOffset dx="4.0" dy="4.0" in="blurOut2" result="blurOut3"/><feBlend in="SourceGraphic" in2="blurOut3" mode="normal"/></filter></defs><g><!--MD5=[fe945b3b09ed0c6d78f30eb145570989]
class upload_wizard--><rect codeLine="5" fill="#FEFECE" filter="url(#f1mqqskwyy4i4o)" height="122.9094" id="upload_wizard" style="stroke:#A80036;stroke-width:1.5;" width="341" x="915" y="38"/><ellipse cx="1041.25" cy="54" fill="#ADD1B2" rx="11" ry="11" style="stroke:#A80036;stroke-width:1.0;"/><path d="M1040.7188,60.9219 Q1038.9688,60.9219 1037.8281,60.1875 Q1036.7031,59.4375 1036.1406,58.0938 Q1035.5938,56.7344 1035.5938,54.9375 Q1035.5938,52.9063 1036.25,51.4531 Q1036.9063,50 1038.1875,49.2188 Q1039.4688,48.4375 1041.3438,48.4375 Q1042.2344,48.4375 1042.9063,48.625 Q1043.5781,48.7969 1044.2656,49.1406 L1043.4531,51.1563 Q1042.8281,50.8438 1042.2813,50.7188 Q1041.75,50.5938 1041.2656,50.5938 Q1040.0938,50.5938 1039.3906,51.125 Q1038.6875,51.6563 1038.3906,52.6094 Q1038.0938,53.5625 1038.0938,54.8281 Q1038.0938,56.8438 1038.8125,57.8125 Q1039.5313,58.7656 1041.125,58.7656 Q1041.7188,58.7656 1042.3438,58.6094 Q1042.9688,58.4531 1043.7969,58.0781 L1043.7969,60.2969 Q1043.0625,60.6094 1042.2656,60.7656 Q1041.4844,60.9219 1040.7188,60.9219 Z " fill="#000000"/><text fill="#000000" font-family="sans-serif" font-size="12" lengthAdjust="spacing" textLength="80" x="1061.75" y="58.656">upload_wizard</text><line style="stroke:#A80036;stroke-width:1.5;" x1="916" x2="1255" y1="70" y2="70"/><line style="stroke:#A80036;stroke-width:1.5;" x1="916" x2="1255" y1="78" y2="78"/><ellipse cx="926" cy="89" fill="#84BE84" rx="3" ry="3" style="stroke:#038048;stroke-width:1.0;"/><text fill="#000000" font-family="sans-serif" font-size="11" lengthAdjust="spacing" textLength="282" x="935" y="93.7589">void upload_problem(verbose, path_to_problems_dir)</text><text fill="#000000" font-family="sans-serif" font-size="11" lengthAdjust="spacing" textLength="0" x="938" y="108.7408"/><rect fill="#F24D5C" height="6" style="stroke:#C82930;stroke-width:1.0;" width="6" x="923" y="115.9638"/><text fill="#000000" font-family="sans-serif" font-size="11" lengthAdjust="spacing" textLength="135" x="935" y="123.7227">int generate_problem_id()</text><rect fill="#F24D5C" height="6" style="stroke:#C82930;stroke-width:1.0;" width="6" x="923" y="130.9457"/><text fill="#000000" font-family="sans-serif" font-size="11" lengthAdjust="spacing" textLength="315" x="935" y="138.7046">void create_problem_dir(problem_id, path_to_problems_dir)</text><rect fill="#F24D5C" height="6" style="stroke:#C82930;stroke-width:1.0;" width="6" x="923" y="145.9276"/><text fill="#000000" font-family="sans-serif" font-size="11" lengthAdjust="spacing" textLength="126" x="935" y="153.6865">void upload_statement()</text><path d="M419.5,6 L419.5,193.0602 A0,0 0 0 0 419.5,193.0602 L879.5,193.0602 A0,0 0 0 0 879.5,193.0602 L879.5,103.5 L914.79,99.5 L879.5,95.5 L879.5,16 L869.5,6 L419.5,6 A0,0 0 0 0 419.5,6 " fill="#FBFB77" filter="url(#f1mqqskwyy4i4o)" style="stroke:#A80036;stroke-width:1.0;"/><path d="M869.5,6 L869.5,16 L879.5,16 L869.5,6 " fill="#FBFB77" style="stroke:#A80036;stroke-width:1.0;"/><text fill="#000000" font-family="sans-serif" font-size="13" lengthAdjust="spacing" textLength="156" x="425.5" y="24.897">The hierarchy of wizards is</text><text fill="#000000" font-family="sans-serif" font-size="13" font-weight="bold" lengthAdjust="spacing" textLength="82" x="584.5" y="24.897">ideologically</text><text fill="#000000" font-family="sans-serif" font-size="13" lengthAdjust="spacing" textLength="125" x="669.5" y="24.897">a hierarchy of classes</text><text fill="#000000" font-family="sans-serif" font-size="13" lengthAdjust="spacing" textLength="0" x="428.5" y="42.603"/><text fill="#000000" font-family="sans-serif" font-size="13" lengthAdjust="spacing" textLength="249" x="425.5" y="60.309">But these classes do not require instances</text><text fill="#000000" font-family="sans-serif" font-size="13" lengthAdjust="spacing" textLength="0" x="428.5" y="78.0151"/><text fill="#000000" font-family="sans-serif" font-size="13" lengthAdjust="spacing" textLength="439" x="425.5" y="95.7211">The Pythonic way to implement such a hierarchy is encapsulating wizards'</text><text fill="#000000" font-family="sans-serif" font-size="13" lengthAdjust="spacing" textLength="207" x="425.5" y="113.4271">logic in modules (separate .py files)</text><text fill="#000000" font-family="sans-serif" font-size="13" lengthAdjust="spacing" textLength="363" x="425.5" y="131.1331">To manage imports easily, we will organize them as packages</text><text fill="#000000" font-family="sans-serif" font-size="13" lengthAdjust="spacing" textLength="292" x="425.5" y="148.8391">Note, that not every class will get its own module</text><text fill="#000000" font-family="sans-serif" font-size="13" lengthAdjust="spacing" textLength="387" x="425.5" y="166.5451">E.g. incomplete wizards will inhabit the protocol_upload package,</text><text fill="#000000" font-family="sans-serif" font-size="13" lengthAdjust="spacing" textLength="316" x="425.5" y="184.2512">as they should not be visible outside of this hierarchy</text><!--MD5=[17a961deb3a473eeb07972d265140b16]
class problem_data_upload--><rect codeLine="26" fill="#FEFECE" filter="url(#f1mqqskwyy4i4o)" height="62.9819" id="problem_data_upload" style="stroke:#A80036;stroke-width:1.5;" width="336" x="917.5" y="316"/><ellipse cx="1021.25" cy="332" fill="#ADD1B2" rx="11" ry="11" style="stroke:#A80036;stroke-width:1.0;"/><path d="M1020.7188,338.9219 Q1018.9688,338.9219 1017.8281,338.1875 Q1016.7031,337.4375 1016.1406,336.0938 Q1015.5938,334.7344 1015.5938,332.9375 Q1015.5938,330.9063 1016.25,329.4531 Q1016.9063,328 1018.1875,327.2188 Q1019.4688,326.4375 1021.3438,326.4375 Q1022.2344,326.4375 1022.9063,326.625 Q1023.5781,326.7969 1024.2656,327.1406 L1023.4531,329.1563 Q1022.8281,328.8438 1022.2813,328.7188 Q1021.75,328.5938 1021.2656,328.5938 Q1020.0938,328.5938 1019.3906,329.125 Q1018.6875,329.6563 1018.3906,330.6094 Q1018.0938,331.5625 1018.0938,332.8281 Q1018.0938,334.8438 1018.8125,335.8125 Q1019.5313,336.7656 1021.125,336.7656 Q1021.7188,336.7656 1022.3438,336.6094 Q1022.9688,336.4531 1023.7969,336.0781 L1023.7969,338.2969 Q1023.0625,338.6094 1022.2656,338.7656 Q1021.4844,338.9219 1020.7188,338.9219 Z " fill="#000000"/><text fill="#000000" font-family="sans-serif" font-size="12" lengthAdjust="spacing" textLength="120" x="1041.75" y="336.656">problem_data_upload</text><line style="stroke:#A80036;stroke-width:1.5;" x1="918.5" x2="1252.5" y1="348" y2="348"/><line style="stroke:#A80036;stroke-width:1.5;" x1="918.5" x2="1252.5" y1="356" y2="356"/><ellipse cx="928.5" cy="367" fill="#84BE84" rx="3" ry="3" style="stroke:#038048;stroke-width:1.0;"/><text fill="#000000" font-family="sans-serif" font-size="11" lengthAdjust="spacing" textLength="310" x="937.5" y="371.7589">void upload_problem_data(verbose, path_to_problems_dir)</text><!--MD5=[b448c87063c53094d4989831babb6cc4]
class protocol_upload--><rect codeLine="33" fill="#FEFECE" filter="url(#f1mqqskwyy4i4o)" height="122.9094" id="protocol_upload" style="stroke:#A80036;stroke-width:1.5;" width="546" x="812.5" y="520"/><ellipse cx="1037.25" cy="536" fill="#A9DCDF" rx="11" ry="11" style="stroke:#A80036;stroke-width:1.0;"/><path d="M1032.4219,541.75 L1035.7656,529.5625 L1038.9063,529.5625 L1042.2813,541.75 L1039.8125,541.75 L1039.0781,538.7344 L1035.5625,538.7344 L1034.8125,541.75 L1032.4219,541.75 Z M1036.8281,533.7031 L1036.0781,536.7031 L1038.5938,536.7031 L1037.875,533.7031 Q1037.7344,533.125 1037.6094,532.5781 Q1037.4844,532.0156 1037.3438,531.4375 Q1037.2344,532.0156 1037.0938,532.5781 Q1036.9531,533.125 1036.8281,533.7031 Z " fill="#000000"/><text fill="#000000" font-family="sans-serif" font-size="12" font-style="italic" lengthAdjust="spacing" textLength="88" x="1057.75" y="540.656">protocol_upload</text><line style="stroke:#A80036;stroke-width:1.5;" x1="813.5" x2="1357.5" y1="552" y2="552"/><line style="stroke:#A80036;stroke-width:1.5;" x1="813.5" x2="1357.5" y1="560" y2="560"/><ellipse cx="823.5" cy="571" fill="#84BE84" rx="3" ry="3" style="stroke:#038048;stroke-width:1.0;"/><text fill="#000000" font-family="sans-serif" font-size="11" font-style="italic" lengthAdjust="spacing" textLength="282" x="832.5" y="575.7589">void upload_protocol(protocol_number, custodian, verbose)</text><rect fill="#F24D5C" height="6" style="stroke:#C82930;stroke-width:1.0;" width="6" x="820.5" y="582.9819"/><text fill="#000000" font-family="sans-serif" font-size="11" lengthAdjust="spacing" textLength="460" x="832.5" y="590.7408">void upload_programming_language_data(key_seq_to_current_dict, custodian, verbose)</text><rect fill="#F24D5C" height="6" style="stroke:#C82930;stroke-width:1.0;" width="6" x="820.5" y="597.9638"/><text fill="#000000" font-family="sans-serif" font-size="11" lengthAdjust="spacing" textLength="384" x="832.5" y="605.7227">void upload_opts(opts_type, key_seq_to_current_dict, custodian, verbose)</text><rect fill="#F24D5C" height="6" style="stroke:#C82930;stroke-width:1.0;" width="6" x="820.5" y="612.9457"/><text fill="#000000" font-family="sans-serif" font-size="11" lengthAdjust="spacing" textLength="345" x="832.5" y="620.7046">void choose_protocol_scheme(key_seq_to_current_dict, custodian)</text><rect fill="#F24D5C" height="6" style="stroke:#C82930;stroke-width:1.0;" width="6" x="820.5" y="627.9276"/><text fill="#000000" font-family="sans-serif" font-size="11" lengthAdjust="spacing" textLength="520" x="832.5" y="635.6865">void run_specific_protocol_upload_subwizard(key_seq_to_current_dict, custodian, scheme, verbose)</text><!--MD5=[295f99047cfcb0e51f8bf68080e49755]
class infiles--><rect codeLine="44" fill="#FEFECE" filter="url(#f1mqqskwyy4i4o)" height="62.9819" id="infiles" style="stroke:#A80036;stroke-width:1.5;" width="423" x="874" y="828"/><ellipse cx="1065.75" cy="844" fill="#A9DCDF" rx="11" ry="11" style="stroke:#A80036;stroke-width:1.0;"/><path d="M1060.9219,849.75 L1064.2656,837.5625 L1067.4063,837.5625 L1070.7813,849.75 L1068.3125,849.75 L1067.5781,846.7344 L1064.0625,846.7344 L1063.3125,849.75 L1060.9219,849.75 Z M1065.3281,841.7031 L1064.5781,844.7031 L1067.0938,844.7031 L1066.375,841.7031 Q1066.2344,841.125 1066.1094,840.5781 Q1065.9844,840.0156 1065.8438,839.4375 Q1065.7344,840.0156 1065.5938,840.5781 Q1065.4531,841.125 1065.3281,841.7031 Z " fill="#000000"/><text fill="#000000" font-family="sans-serif" font-size="12" font-style="italic" lengthAdjust="spacing" textLength="31" x="1086.25" y="848.656">infiles</text><line style="stroke:#A80036;stroke-width:1.5;" x1="875" x2="1296" y1="860" y2="860"/><line style="stroke:#A80036;stroke-width:1.5;" x1="875" x2="1296" y1="868" y2="868"/><polygon fill="#FFFF44" points="885,874,889,878,885,882,881,878" style="stroke:#B38D22;stroke-width:1.0;"/><text fill="#000000" font-family="sans-serif" font-size="11" lengthAdjust="spacing" text-decoration="underline" textLength="397" x="894" y="883.7589">void upload_inputs(key_seq_to_current_dict, custodian, verbose, test_count)</text><!--MD5=[f096a09a76e00f253b5482eb2d3a90c7]
class outfiles--><rect codeLine="48" fill="#FEFECE" filter="url(#f1mqqskwyy4i4o)" height="62.9819" id="outfiles" style="stroke:#A80036;stroke-width:1.5;" width="523" x="244" y="828"/><ellipse cx="481.75" cy="844" fill="#A9DCDF" rx="11" ry="11" style="stroke:#A80036;stroke-width:1.0;"/><path d="M476.9219,849.75 L480.2656,837.5625 L483.4063,837.5625 L486.7813,849.75 L484.3125,849.75 L483.5781,846.7344 L480.0625,846.7344 L479.3125,849.75 L476.9219,849.75 Z M481.3281,841.7031 L480.5781,844.7031 L483.0938,844.7031 L482.375,841.7031 Q482.2344,841.125 482.1094,840.5781 Q481.9844,840.0156 481.8438,839.4375 Q481.7344,840.0156 481.5938,840.5781 Q481.4531,841.125 481.3281,841.7031 Z " fill="#000000"/><text fill="#000000" font-family="sans-serif" font-size="12" font-style="italic" lengthAdjust="spacing" textLength="39" x="502.25" y="848.656">outfiles</text><line style="stroke:#A80036;stroke-width:1.5;" x1="245" x2="766" y1="860" y2="860"/><line style="stroke:#A80036;stroke-width:1.5;" x1="245" x2="766" y1="868" y2="868"/><polygon fill="#FFFF44" points="255,874,259,878,255,882,251,878" style="stroke:#B38D22;stroke-width:1.0;"/><text fill="#000000" font-family="sans-serif" font-size="11" lengthAdjust="spacing" text-decoration="underline" textLength="497" x="264" y="883.7589">void upload_random_input_generator(key_seq_to_current_dict, custodian, verbose, test_count)</text><!--MD5=[41848d1a69b80177473a67541adc2bcc]
class custom_checker--><rect codeLine="52" fill="#FEFECE" filter="url(#f1mqqskwyy4i4o)" height="62.9819" id="custom_checker" style="stroke:#A80036;stroke-width:1.5;" width="413" x="1404" y="828"/><ellipse cx="1564.25" cy="844" fill="#A9DCDF" rx="11" ry="11" style="stroke:#A80036;stroke-width:1.0;"/><path d="M1559.4219,849.75 L1562.7656,837.5625 L1565.9063,837.5625 L1569.2813,849.75 L1566.8125,849.75 L1566.0781,846.7344 L1562.5625,846.7344 L1561.8125,849.75 L1559.4219,849.75 Z M1563.8281,841.7031 L1563.0781,844.7031 L1565.5938,844.7031 L1564.875,841.7031 Q1564.7344,841.125 1564.6094,840.5781 Q1564.4844,840.0156 1564.3438,839.4375 Q1564.2344,840.0156 1564.0938,840.5781 Q1563.9531,841.125 1563.8281,841.7031 Z " fill="#000000"/><text fill="#000000" font-family="sans-serif" font-size="12" font-style="italic" lengthAdjust="spacing" textLength="84" x="1584.75" y="848.656">custom_checker</text><line style="stroke:#A80036;stroke-width:1.5;" x1="1405" x2="1816" y1="860" y2="860"/><line style="stroke:#A80036;stroke-width:1.5;" x1="1405" x2="1816" y1="868" y2="868"/><polygon fill="#FFFF44" points="1415,874,1419,878,1415,882,1411,878" style="stroke:#B38D22;stroke-width:1.0;"/><text fill="#000000" font-family="sans-serif" font-size="11" lengthAdjust="spacing" text-decoration="underline" textLength="387" x="1424" y="883.7589">void upload_custom_checker(key_seq_to_current_dict, custodian, verbose)</text><!--MD5=[1942926e7d467b3a2697a06931be7c59]
class rand_in--><rect codeLine="56" fill="#FEFECE" filter="url(#f1mqqskwyy4i4o)" height="62.9819" id="rand_in" style="stroke:#A80036;stroke-width:1.5;" width="523" x="1852" y="828"/><ellipse cx="2088.75" cy="844" fill="#A9DCDF" rx="11" ry="11" style="stroke:#A80036;stroke-width:1.0;"/><path d="M2083.9219,849.75 L2087.2656,837.5625 L2090.4063,837.5625 L2093.7813,849.75 L2091.3125,849.75 L2090.5781,846.7344 L2087.0625,846.7344 L2086.3125,849.75 L2083.9219,849.75 Z M2088.3281,841.7031 L2087.5781,844.7031 L2090.0938,844.7031 L2089.375,841.7031 Q2089.2344,841.125 2089.1094,840.5781 Q2088.9844,840.0156 2088.8438,839.4375 Q2088.7344,840.0156 2088.5938,840.5781 Q2088.4531,841.125 2088.3281,841.7031 Z " fill="#000000"/><text fill="#000000" font-family="sans-serif" font-size="12" font-style="italic" lengthAdjust="spacing" textLength="41" x="2109.25" y="848.656">rand_in</text><line style="stroke:#A80036;stroke-width:1.5;" x1="1853" x2="2374" y1="860" y2="860"/><line style="stroke:#A80036;stroke-width:1.5;" x1="1853" x2="2374" y1="868" y2="868"/><polygon fill="#FFFF44" points="1863,874,1867,878,1863,882,1859,878" style="stroke:#B38D22;stroke-width:1.0;"/><text fill="#000000" font-family="sans-serif" font-size="11" lengthAdjust="spacing" text-decoration="underline" textLength="497" x="1872" y="883.7589">void upload_random_input_generator(key_seq_to_current_dict, custodian, verbose, test_count)</text><!--MD5=[1524f659c38bee13743150246c8a969f]
class specific_protocol_upload--><rect codeLine="63" fill="#FEFECE" filter="url(#f1mqqskwyy4i4o)" height="62.9819" id="specific_protocol_upload" style="stroke:#A80036;stroke-width:1.5;" width="181" x="995" y="704"/><ellipse cx="1018.1" cy="720" fill="#B4A7E5" rx="11" ry="11" style="stroke:#A80036;stroke-width:1.0;"/><path d="M1014.1313,726.5 L1014.1313,724.7969 L1016.4906,724.5313 L1016.4906,716.3281 L1014.1313,716.0625 L1014.1313,714.3594 L1021.2719,714.3594 L1021.2719,716.0625 L1018.85,716.3281 L1018.85,724.5313 L1021.2719,724.7969 L1021.2719,726.5 L1014.1313,726.5 Z " fill="#000000"/><text fill="#000000" font-family="sans-serif" font-size="12" font-style="italic" lengthAdjust="spacing" textLength="131" x="1033.9" y="724.656">specific_protocol_upload</text><line style="stroke:#A80036;stroke-width:1.5;" x1="996" x2="1175" y1="736" y2="736"/><line style="stroke:#A80036;stroke-width:1.5;" x1="996" x2="1175" y1="744" y2="744"/><ellipse cx="1006" cy="755" fill="#84BE84" rx="3" ry="3" style="stroke:#038048;stroke-width:1.0;"/><text fill="#000000" font-family="sans-serif" font-size="11" font-style="italic" lengthAdjust="spacing" textLength="155" x="1015" y="759.7589">void upload_specific_protocol(...)</text><!--MD5=[5136a77e5fa0e74a03ac70c5bd3c9d82]
class inout--><rect codeLine="68" fill="#FEFECE" filter="url(#f1mqqskwyy4i4o)" height="48" id="inout" style="stroke:#A80036;stroke-width:1.5;" width="60" x="790.5" y="967"/><ellipse cx="805.5" cy="983" fill="#ADD1B2" rx="11" ry="11" style="stroke:#A80036;stroke-width:1.0;"/><path d="M804.9688,989.9219 Q803.2188,989.9219 802.0781,989.1875 Q800.9531,988.4375 800.3906,987.0938 Q799.8438,985.7344 799.8438,983.9375 Q799.8438,981.9063 800.5,980.4531 Q801.1563,979 802.4375,978.2188 Q803.7188,977.4375 805.5938,977.4375 Q806.4844,977.4375 807.1563,977.625 Q807.8281,977.7969 808.5156,978.1406 L807.7031,980.1563 Q807.0781,979.8438 806.5313,979.7188 Q806,979.5938 805.5156,979.5938 Q804.3438,979.5938 803.6406,980.125 Q802.9375,980.6563 802.6406,981.6094 Q802.3438,982.5625 802.3438,983.8281 Q802.3438,985.8438 803.0625,986.8125 Q803.7813,987.7656 805.375,987.7656 Q805.9688,987.7656 806.5938,987.6094 Q807.2188,987.4531 808.0469,987.0781 L808.0469,989.2969 Q807.3125,989.6094 806.5156,989.7656 Q805.7344,989.9219 804.9688,989.9219 Z " fill="#000000"/><text fill="#000000" font-family="sans-serif" font-size="12" lengthAdjust="spacing" textLength="28" x="819.5" y="987.656">inout</text><line style="stroke:#A80036;stroke-width:1.5;" x1="791.5" x2="849.5" y1="999" y2="999"/><line style="stroke:#A80036;stroke-width:1.5;" x1="791.5" x2="849.5" y1="1007" y2="1007"/><!--MD5=[2acfa152d193f78bb528b1d1e3b99bbc]
class in_custom--><rect codeLine="73" fill="#FEFECE" filter="url(#f1mqqskwyy4i4o)" height="48" id="in_custom" style="stroke:#A80036;stroke-width:1.5;" width="88" x="1306.5" y="967"/><ellipse cx="1321.5" cy="983" fill="#ADD1B2" rx="11" ry="11" style="stroke:#A80036;stroke-width:1.0;"/><path d="M1320.9688,989.9219 Q1319.2188,989.9219 1318.0781,989.1875 Q1316.9531,988.4375 1316.3906,987.0938 Q1315.8438,985.7344 1315.8438,983.9375 Q1315.8438,981.9063 1316.5,980.4531 Q1317.1563,979 1318.4375,978.2188 Q1319.7188,977.4375 1321.5938,977.4375 Q1322.4844,977.4375 1323.1563,977.625 Q1323.8281,977.7969 1324.5156,978.1406 L1323.7031,980.1563 Q1323.0781,979.8438 1322.5313,979.7188 Q1322,979.5938 1321.5156,979.5938 Q1320.3438,979.5938 1319.6406,980.125 Q1318.9375,980.6563 1318.6406,981.6094 Q1318.3438,982.5625 1318.3438,983.8281 Q1318.3438,985.8438 1319.0625,986.8125 Q1319.7813,987.7656 1321.375,987.7656 Q1321.9688,987.7656 1322.5938,987.6094 Q1323.2188,987.4531 1324.0469,987.0781 L1324.0469,989.2969 Q1323.3125,989.6094 1322.5156,989.7656 Q1321.7344,989.9219 1320.9688,989.9219 Z " fill="#000000"/><text fill="#000000" font-family="sans-serif" font-size="12" lengthAdjust="spacing" textLength="56" x="1335.5" y="987.656">in_custom</text><line style="stroke:#A80036;stroke-width:1.5;" x1="1307.5" x2="1393.5" y1="999" y2="999"/><line style="stroke:#A80036;stroke-width:1.5;" x1="1307.5" x2="1393.5" y1="1007" y2="1007"/><!--MD5=[d397b404fa1d9ac858701584cd01331a]
class rand_custom--><rect codeLine="78" fill="#FEFECE" filter="url(#f1mqqskwyy4i4o)" height="48" id="rand_custom" style="stroke:#A80036;stroke-width:1.5;" width="104" x="2061.5" y="967"/><ellipse cx="2076.5" cy="983" fill="#ADD1B2" rx="11" ry="11" style="stroke:#A80036;stroke-width:1.0;"/><path d="M2075.9688,989.9219 Q2074.2188,989.9219 2073.0781,989.1875 Q2071.9531,988.4375 2071.3906,987.0938 Q2070.8438,985.7344 2070.8438,983.9375 Q2070.8438,981.9063 2071.5,980.4531 Q2072.1563,979 2073.4375,978.2188 Q2074.7188,977.4375 2076.5938,977.4375 Q2077.4844,977.4375 2078.1563,977.625 Q2078.8281,977.7969 2079.5156,978.1406 L2078.7031,980.1563 Q2078.0781,979.8438 2077.5313,979.7188 Q2077,979.5938 2076.5156,979.5938 Q2075.3438,979.5938 2074.6406,980.125 Q2073.9375,980.6563 2073.6406,981.6094 Q2073.3438,982.5625 2073.3438,983.8281 Q2073.3438,985.8438 2074.0625,986.8125 Q2074.7813,987.7656 2076.375,987.7656 Q2076.9688,987.7656 2077.5938,987.6094 Q2078.2188,987.4531 2079.0469,987.0781 L2079.0469,989.2969 Q2078.3125,989.6094 2077.5156,989.7656 Q2076.7344,989.9219 2075.9688,989.9219 Z " fill="#000000"/><text fill="#000000" font-family="sans-serif" font-size="12" lengthAdjust="spacing" textLength="72" x="2090.5" y="987.656">rand_custom</text><line style="stroke:#A80036;stroke-width:1.5;" x1="2062.5" x2="2164.5" y1="999" y2="999"/><line style="stroke:#A80036;stroke-width:1.5;" x1="2062.5" x2="2164.5" y1="1007" y2="1007"/><!--MD5=[e19f7c9a31868522e8cb90818cf71e17]
class limited_work_space--><rect codeLine="83" fill="#FEFECE" filter="url(#f1mqqskwyy4i4o)" height="77.9638" id="limited_work_space" style="stroke:#A80036;stroke-width:1.5;" width="367" x="7" y="952"/><ellipse cx="132.25" cy="968" fill="#ADD1B2" rx="11" ry="11" style="stroke:#A80036;stroke-width:1.0;"/><path d="M131.7188,974.9219 Q129.9688,974.9219 128.8281,974.1875 Q127.7031,973.4375 127.1406,972.0938 Q126.5938,970.7344 126.5938,968.9375 Q126.5938,966.9063 127.25,965.4531 Q127.9063,964 129.1875,963.2188 Q130.4688,962.4375 132.3438,962.4375 Q133.2344,962.4375 133.9063,962.625 Q134.5781,962.7969 135.2656,963.1406 L134.4531,965.1563 Q133.8281,964.8438 133.2813,964.7188 Q132.75,964.5938 132.2656,964.5938 Q131.0938,964.5938 130.3906,965.125 Q129.6875,965.6563 129.3906,966.6094 Q129.0938,967.5625 129.0938,968.8281 Q129.0938,970.8438 129.8125,971.8125 Q130.5313,972.7656 132.125,972.7656 Q132.7188,972.7656 133.3438,972.6094 Q133.9688,972.4531 134.7969,972.0781 L134.7969,974.2969 Q134.0625,974.6094 133.2656,974.7656 Q132.4844,974.9219 131.7188,974.9219 Z " fill="#000000"/><text fill="#000000" font-family="sans-serif" font-size="12" lengthAdjust="spacing" textLength="108" x="152.75" y="972.656">limited_work_space</text><line style="stroke:#A80036;stroke-width:1.5;" x1="8" x2="373" y1="984" y2="984"/><line style="stroke:#A80036;stroke-width:1.5;" x1="8" x2="373" y1="992" y2="992"/><rect fill="#F24D5C" height="6" style="stroke:#C82930;stroke-width:1.0;" width="6" x="15" y="1000"/><text fill="#000000" font-family="sans-serif" font-size="11" lengthAdjust="spacing" text-decoration="underline" textLength="341" x="27" y="1007.7589">void upload_header(key_seq_to_current_dict, custodian, verbose)</text><rect fill="#F24D5C" height="6" style="stroke:#C82930;stroke-width:1.0;" width="6" x="15" y="1014.9819"/><text fill="#000000" font-family="sans-serif" font-size="11" lengthAdjust="spacing" text-decoration="underline" textLength="337" x="27" y="1022.7408">void upload_footer(key_seq_to_current_dict, custodian, verbose)</text><!--MD5=[17e45b65243844e0af825c5e5754d354]
reverse link upload_wizard to problem_data_upload--><path codeLine="29" d="M1085.5,166.55 C1085.5,215.07 1085.5,278.77 1085.5,315.91 " fill="none" id="upload_wizard-backto-problem_data_upload" style="stroke:#A80036;stroke-width:1.0;"/><polygon fill="#A80036" points="1085.5,161.31,1081.5,170.31,1085.5,166.31,1089.5,170.31,1085.5,161.31" style="stroke:#A80036;stroke-width:1.0;"/><text fill="#000000" font-family="sans-serif" font-size="13" lengthAdjust="spacing" textLength="7" x="1078.1172" y="182.9407">1</text><text fill="#000000" font-family="sans-serif" font-size="13" lengthAdjust="spacing" textLength="7" x="1077.7344" y="304.1165">1</text><!--MD5=[f4c2ce2524b14b4ddf8e6db35d8125ea]
reverse link problem_data_upload to protocol_upload--><path codeLine="40" d="M1085.5,384.49 C1085.5,420.63 1085.5,476.97 1085.5,519.99 " fill="none" id="problem_data_upload-backto-protocol_upload" style="stroke:#A80036;stroke-width:1.0;"/><polygon fill="#A80036" points="1085.5,379.31,1081.5,388.31,1085.5,384.31,1089.5,388.31,1085.5,379.31" style="stroke:#A80036;stroke-width:1.0;"/><text fill="#000000" font-family="sans-serif" font-size="13" lengthAdjust="spacing" textLength="128" x="1086.5" y="454.897">one for each protocol</text><text fill="#000000" font-family="sans-serif" font-size="13" lengthAdjust="spacing" textLength="7" x="1077.8328" y="400.9601">1</text><text fill="#000000" font-family="sans-serif" font-size="13" lengthAdjust="spacing" textLength="7" x="1078.0734" y="508.4031">4</text><!--MD5=[704c6f48f737521e38818f399406cd8f]
reverse link protocol_upload to specific_protocol_upload--><path codeLine="66" d="M1085.5,648.42 C1085.5,667.7 1085.5,687.86 1085.5,703.82 " fill="none" id="protocol_upload-backto-specific_protocol_upload" style="stroke:#A80036;stroke-width:1.0;"/><polygon fill="#A80036" points="1085.5,643.01,1081.5,652.01,1085.5,648.01,1089.5,652.01,1085.5,643.01" style="stroke:#A80036;stroke-width:1.0;"/><!--MD5=[7fe2ef1ddefd0840494f8f109fbc3a55]
reverse link infiles to inout--><path codeLine="69" d="M1018.53,893.23 C964.56,919.6 891.21,955.44 850.63,975.28 " fill="none" id="infiles-backto-inout" style="stroke:#A80036;stroke-width:1.0;"/><polygon fill="#A80036" points="1023.03,891.03,1013.1882,891.4017,1018.5408,893.2317,1016.7109,898.5844,1023.03,891.03" style="stroke:#A80036;stroke-width:1.0;"/><!--MD5=[e75fa9050dc05be020dbee2756aeb075]
reverse link outfiles to inout--><path codeLine="70" d="M584.52,892.98 C651.32,920.45 743.42,958.31 790.36,977.61 " fill="none" id="outfiles-backto-inout" style="stroke:#A80036;stroke-width:1.0;"/><polygon fill="#A80036" points="579.75,891.03,586.5568,898.1481,584.3755,892.9287,589.5948,890.7473,579.75,891.03" style="stroke:#A80036;stroke-width:1.0;"/><!--MD5=[737f094e2d67dfe3a86d90bce83683c1]
reverse link specific_protocol_upload to inout--><path codeLine="71" d="M975.4,757.26 C932.59,770.65 886.68,792.5 856.5,828 C822.63,867.84 818.69,932.62 819.27,966.95 " fill="none" id="specific_protocol_upload-backto-inout" style="stroke:#A80036;stroke-width:1.0;stroke-dasharray:7.0,7.0;"/><polygon fill="none" points="973.62,750.48,994.78,751.68,977.5,763.94,973.62,750.48" style="stroke:#A80036;stroke-width:1.0;"/><!--MD5=[3a91e740021ff7211708862bc854b2e2]
reverse link infiles to in_custom--><path codeLine="74" d="M1152.58,893.28 C1200.75,916.82 1264.32,947.89 1306.26,968.38 " fill="none" id="infiles-backto-in_custom" style="stroke:#A80036;stroke-width:1.0;"/><polygon fill="#A80036" points="1147.97,891.03,1154.2891,898.5844,1152.4592,893.2317,1157.8118,891.4017,1147.97,891.03" style="stroke:#A80036;stroke-width:1.0;"/><!--MD5=[d7c90ac308a380de2d417c596252a96e]
reverse link custom_checker to in_custom--><path codeLine="75" d="M1544.72,893.27 C1497.76,916.65 1435.87,947.48 1394.71,967.98 " fill="none" id="custom_checker-backto-in_custom" style="stroke:#A80036;stroke-width:1.0;"/><polygon fill="#A80036" points="1549.21,891.03,1539.3707,891.4646,1544.735,893.2603,1542.9393,898.6246,1549.21,891.03" style="stroke:#A80036;stroke-width:1.0;"/><!--MD5=[dd3e2f13f4fa0bba780f9ce39f373a9b]
reverse link specific_protocol_upload to in_custom--><path codeLine="76" d="M1195.6,757.26 C1238.41,770.65 1284.32,792.5 1314.5,828 C1348.37,867.84 1352.31,932.62 1351.73,966.95 " fill="none" id="specific_protocol_upload-backto-in_custom" style="stroke:#A80036;stroke-width:1.0;stroke-dasharray:7.0,7.0;"/><polygon fill="none" points="1193.5,763.94,1176.22,751.68,1197.38,750.48,1193.5,763.94" style="stroke:#A80036;stroke-width:1.0;"/><!--MD5=[4f978eeccc6edcd1b61a8ab110d9b2f6]
reverse link rand_in to rand_custom--><path codeLine="79" d="M2113.5,896.19 C2113.5,918.73 2113.5,947.19 2113.5,966.82 " fill="none" id="rand_in-backto-rand_custom" style="stroke:#A80036;stroke-width:1.0;"/><polygon fill="#A80036" points="2113.5,891.19,2109.5,900.19,2113.5,896.19,2117.5,900.19,2113.5,891.19" style="stroke:#A80036;stroke-width:1.0;"/><!--MD5=[01e6734f2d6c74d5f67292921f303501]
reverse link custom_checker to rand_custom--><path codeLine="80" d="M1734.03,892.3 C1838.99,919.33 1984.48,956.78 2061.24,976.55 " fill="none" id="custom_checker-backto-rand_custom" style="stroke:#A80036;stroke-width:1.0;"/><polygon fill="#A80036" points="1729.07,891.03,1736.7762,897.163,1733.9096,892.2863,1738.7863,889.4197,1729.07,891.03" style="stroke:#A80036;stroke-width:1.0;"/><!--MD5=[57a3092807b194688630e62dceef11bc]
reverse link specific_protocol_upload to rand_custom--><path codeLine="81" d="M1196.59,735.82 C1497.6,735.14 2311.74,741.39 2392.5,828 C2467.08,907.98 2265.6,960.2 2165.78,980.47 " fill="none" id="specific_protocol_upload-backto-rand_custom" style="stroke:#A80036;stroke-width:1.0;stroke-dasharray:7.0,7.0;"/><polygon fill="none" points="1196.27,742.82,1176.25,735.88,1196.23,728.82,1196.27,742.82" style="stroke:#A80036;stroke-width:1.0;"/><!--MD5=[8f26e9d17428f6ce2b3e512eac6ed664]
reverse link specific_protocol_upload to limited_work_space--><path codeLine="87" d="M974.78,741.17 C755.27,751.44 281.28,779.06 226.5,828 C192.12,858.71 186.65,914.31 187.39,951.7 " fill="none" id="specific_protocol_upload-backto-limited_work_space" style="stroke:#A80036;stroke-width:1.0;stroke-dasharray:7.0,7.0;"/><polygon fill="none" points="974.59,734.17,994.89,740.24,975.23,748.16,974.59,734.17" style="stroke:#A80036;stroke-width:1.0;"/><!--MD5=[20ba70c056671b570a2109d6558219e2]
@startuml
'https://plantuml.com/class-diagram

' ========================== GENERAL =========================

class upload_wizard {
    +void upload_problem(verbose, path_to_problems_dir)

    -int generate_problem_id()
    -void create_problem_dir(problem_id, path_to_problems_dir)
    -void upload_statement()
}

note left of upload_wizard
The hierarchy of wizards is **ideologically** a hierarchy of classes

But these classes do not require instances

The Pythonic way to implement such a hierarchy is encapsulating wizards'
logic in modules (separate .py files)
To manage imports easily, we will organize them as packages
Note, that not every class will get its own module
E.g. incomplete wizards will inhabit the protocol_upload package,
as they should not be visible outside of this hierarchy
end note

class problem_data_upload {
    +void upload_problem_data(verbose, path_to_problems_dir)
}
upload_wizard "1" <- - - "1" problem_data_upload

' ========================== PROTOCOLS =========================

abstract class protocol_upload {
    +{abstract} void upload_protocol(protocol_number, custodian, verbose)
    -void upload_programming_language_data(key_seq_to_current_dict, custodian, verbose)
    -void upload_opts(opts_type, key_seq_to_current_dict, custodian, verbose)
    -void choose_protocol_scheme(key_seq_to_current_dict, custodian)
    -void run_specific_protocol_upload_subwizard(key_seq_to_current_dict, custodian, scheme, verbose)
}
problem_data_upload "1" <- - - "4" protocol_upload : one for each protocol

' ========================== INCOMPLETE WIZARDS =========================

abstract class infiles {
    #{static} void upload_inputs(key_seq_to_current_dict, custodian, verbose, test_count)
}

abstract class outfiles {
    #{static} void upload_random_input_generator(key_seq_to_current_dict, custodian, verbose, test_count)
}

abstract class custom_checker {
    #{static} void upload_custom_checker(key_seq_to_current_dict, custodian, verbose)
}

abstract class rand_in {
    #{static} void upload_random_input_generator(key_seq_to_current_dict, custodian, verbose, test_count)
}


' ========================== COMPLETE WIZARDS =========================

interface specific_protocol_upload {
    +{abstract} void upload_specific_protocol(...)
}
protocol_upload <- - specific_protocol_upload

class inout
infiles <- - inout
outfiles <- - inout
specific_protocol_upload <|... inout

class in_custom
infiles <- - in_custom
custom_checker <- - in_custom
specific_protocol_upload <|... in_custom

class rand_custom
rand_in <- - rand_custom
custom_checker <- - rand_custom
specific_protocol_upload <|... rand_custom

class limited_work_space {
    -{static} void upload_header(key_seq_to_current_dict, custodian, verbose)
    -{static} void upload_footer(key_seq_to_current_dict, custodian, verbose)
}
specific_protocol_upload <|... limited_work_space

@enduml

@startuml


class upload_wizard {
    +void upload_problem(verbose, path_to_problems_dir)

    -int generate_problem_id()
    -void create_problem_dir(problem_id, path_to_problems_dir)
    -void upload_statement()
}

note left of upload_wizard
The hierarchy of wizards is **ideologically** a hierarchy of classes

But these classes do not require instances

The Pythonic way to implement such a hierarchy is encapsulating wizards'
logic in modules (separate .py files)
To manage imports easily, we will organize them as packages
Note, that not every class will get its own module
E.g. incomplete wizards will inhabit the protocol_upload package,
as they should not be visible outside of this hierarchy
end note

class problem_data_upload {
    +void upload_problem_data(verbose, path_to_problems_dir)
}
upload_wizard "1" <- - - "1" problem_data_upload


abstract class protocol_upload {
    +{abstract} void upload_protocol(protocol_number, custodian, verbose)
    -void upload_programming_language_data(key_seq_to_current_dict, custodian, verbose)
    -void upload_opts(opts_type, key_seq_to_current_dict, custodian, verbose)
    -void choose_protocol_scheme(key_seq_to_current_dict, custodian)
    -void run_specific_protocol_upload_subwizard(key_seq_to_current_dict, custodian, scheme, verbose)
}
problem_data_upload "1" <- - - "4" protocol_upload : one for each protocol


abstract class infiles {
    #{static} void upload_inputs(key_seq_to_current_dict, custodian, verbose, test_count)
}

abstract class outfiles {
    #{static} void upload_random_input_generator(key_seq_to_current_dict, custodian, verbose, test_count)
}

abstract class custom_checker {
    #{static} void upload_custom_checker(key_seq_to_current_dict, custodian, verbose)
}

abstract class rand_in {
    #{static} void upload_random_input_generator(key_seq_to_current_dict, custodian, verbose, test_count)
}



interface specific_protocol_upload {
    +{abstract} void upload_specific_protocol(...)
}
protocol_upload <- - specific_protocol_upload

class inout
infiles <- - inout
outfiles <- - inout
specific_protocol_upload <|... inout

class in_custom
infiles <- - in_custom
custom_checker <- - in_custom
specific_protocol_upload <|... in_custom

class rand_custom
rand_in <- - rand_custom
custom_checker <- - rand_custom
specific_protocol_upload <|... rand_custom

class limited_work_space {
    -{static} void upload_header(key_seq_to_current_dict, custodian, verbose)
    -{static} void upload_footer(key_seq_to_current_dict, custodian, verbose)
}
specific_protocol_upload <|... limited_work_space

@enduml

PlantUML version 1.2021.16(Wed Dec 08 20:25:22 MSK 2021)
(GPL source distribution)
Java Runtime: OpenJDK Runtime Environment
JVM: OpenJDK 64-Bit Server VM
Default Encoding: UTF-8
Language: en
Country: US
--></g></svg>